<svg width="560" height="420" viewBox="0 0 560 420" fill="none" xmlns="http://www.w3.org/2000/svg">
  <rect width="560" height="420" rx="32" fill="#0F172A"/>
  <rect x="60" y="50" width="440" height="320" rx="24" fill="#111827"/>
  <rect x="90" y="90" width="220" height="18" rx="9" fill="#35F2B0"/>
  <rect x="90" y="125" width="160" height="12" rx="6" fill="#334155"/>
  <rect x="90" y="150" width="320" height="10" rx="5" fill="#334155"/>
  <rect x="90" y="190" width="360" height="12" rx="6" fill="#39C7FF"/>
  <rect x="90" y="220" width="300" height="10" rx="5" fill="#334155"/>
  <rect x="90" y="260" width="140" height="18" rx="9" fill="#FF8A3D"/>
  <rect x="90" y="290" width="260" height="10" rx="5" fill="#334155"/>
  <circle cx="420" cy="130" r="38" fill="#1E293B"/>
  <path d="M420 104C430.5 104 439 112.5 439 123C439 141.5 420 156 420 156C420 156 401 141.5 401 123C401 112.5 409.5 104 420 104Z" fill="#35F2B0"/>
</svg>
